<svg width="360" height="360" viewBox="0 0 360 360" fill="none" xmlns="http://www.w3.org/2000/svg">
<path d="M257.308 92.0067L255.673 93.8973L255.679 93.9026L255.685 93.9079L257.308 92.0067ZM284.307 158.139V160.639H286.807V158.139H284.307ZM220.298 158.139H217.798V160.639H220.298V158.139ZM210.591 129.32L208.719 130.978L208.732 130.992L208.746 131.007L210.591 129.32ZM153.559 131.444L151.571 129.928L151.559 129.944L151.548 129.959L153.559 131.444ZM153.559 221.845L151.531 223.307L151.55 223.334L151.571 223.36L153.559 221.845ZM212.411 224.575L210.643 222.807L210.643 222.807L212.411 224.575ZM222.422 196.363V193.863H219.922V196.363H222.422ZM284.307 196.363H286.807V193.863H284.307V196.363ZM257.915 261.888L256.283 259.995L256.277 259.999L256.272 260.004L257.915 261.888ZM102.898 257.338L101.13 259.106L101.14 259.115L102.898 257.338ZM102.898 95.9504L101.14 94.1729L101.13 94.1826L102.898 95.9504ZM183.895 71.148C214.421 71.148 238.25 78.8235 255.673 93.8973L258.944 90.1161C240.368 74.0449 215.255 66.148 183.895 66.148V71.148ZM255.685 93.9079C273.01 108.702 281.807 129.982 281.807 158.139H286.807C286.807 128.86 277.605 106.051 258.932 90.1056L255.685 93.9079ZM284.307 155.639H220.298V160.639H284.307V155.639ZM222.798 158.139C222.798 145.552 219.432 135.285 212.436 127.633L208.746 131.007C214.693 137.512 217.798 146.457 217.798 158.139H222.798ZM212.462 127.662C205.608 119.923 195.851 116.202 183.592 116.202V121.202C194.792 121.202 203.035 124.56 208.719 130.978L212.462 127.662ZM183.592 116.202C169.492 116.202 158.639 120.651 151.571 129.928L155.548 132.959C161.422 125.248 170.591 121.202 183.592 121.202V116.202ZM151.548 129.959C144.849 139.034 141.655 151.459 141.655 166.937H146.655C146.655 152.078 149.73 140.841 155.571 132.928L151.548 129.959ZM141.655 166.937V186.352H146.655V166.937H141.655ZM141.655 186.352C141.655 201.64 144.855 214.046 151.531 223.307L155.587 220.383C149.725 212.251 146.655 200.995 146.655 186.352H141.655ZM151.571 223.36C158.625 232.618 169.26 237.086 182.985 237.086V232.086C170.419 232.086 161.437 228.059 155.548 220.33L151.571 223.36ZM182.985 237.086C196.34 237.086 206.884 233.638 214.179 226.343L210.643 222.807C204.59 228.86 195.517 232.086 182.985 232.086V237.086ZM214.179 226.343C221.445 219.076 224.922 208.962 224.922 196.363H219.922C219.922 208.032 216.725 216.726 210.643 222.807L214.179 226.343ZM222.422 198.863H284.307V193.863H222.422V198.863ZM281.807 196.363C281.807 224.331 273.203 245.408 256.283 259.995L259.547 263.782C277.816 248.033 286.807 225.426 286.807 196.363H281.807ZM256.272 260.004C239.483 274.645 215.477 282.14 183.895 282.14V287.14C216.221 287.14 241.561 279.467 259.558 263.772L256.272 260.004ZM183.895 282.14C148.707 282.14 122.439 273.148 104.656 255.56L101.14 259.115C120.165 277.931 147.894 287.14 183.895 287.14V282.14ZM104.666 255.57C87.0888 237.993 78.0956 211.834 78.0956 176.644H73.0956C73.0956 212.643 82.304 240.279 101.13 259.106L104.666 255.57ZM78.0956 176.644C78.0956 141.454 87.0888 115.295 104.666 97.7182L101.13 94.1826C82.304 113.009 73.0956 140.646 73.0956 176.644H78.0956ZM104.656 97.7279C122.439 80.1404 148.707 71.148 183.895 71.148V66.148C147.894 66.148 120.165 75.3572 101.14 94.1729L104.656 97.7279Z" fill="white"/>
</svg>
