<svg width="385" height="385" viewBox="0 0 385 385" fill="none" xmlns="http://www.w3.org/2000/svg">
<rect width="385" height="385" rx="94" fill="#7AA884"/>
<path d="M183 186C183 167.222 198.222 152 217 152H385V234H217C198.222 234 183 218.778 183 200V186Z" fill="white"/>
<path d="M71.384 277.648L70.9398 278.032L70.9435 278.037L71.384 277.648ZM73.814 304V304.587H74.4014V304H73.814ZM63.068 304H62.4806V304.587H63.068V304ZM62.15 283.912L61.6827 284.268L61.6922 284.28L61.7024 284.292L62.15 283.912ZM55.4 304V304.587H55.9874V304H55.4ZM44.654 304H44.0666V304.587H44.654V304ZM43.736 283.912L43.2687 284.268L43.2782 284.28L43.2884 284.292L43.736 283.912ZM38.174 284.074L38.607 284.471L38.607 284.471L38.174 284.074ZM36.986 304V304.587H37.5734V304H36.986ZM26.24 304H25.6526V304.587H26.24V304ZM26.24 275.488V274.901H25.6526V275.488H26.24ZM35.042 275.488L35.6216 275.393L35.5407 274.901H35.042V275.488ZM35.744 279.754L35.1644 279.849L35.3953 281.253L36.222 280.095L35.744 279.754ZM40.01 276.19L40.2684 276.718L40.2727 276.715L40.01 276.19ZM54.32 279.754L53.7844 279.995L54.1967 280.91L54.7926 280.103L54.32 279.754ZM58.586 276.19L58.8487 276.715L58.853 276.713L58.586 276.19ZM64.094 275.427C67.2195 275.427 69.4635 276.326 70.9398 278.032L71.8282 277.264C70.0645 275.226 67.4485 274.253 64.094 274.253V275.427ZM70.9435 278.037C72.4371 279.729 73.2266 282.198 73.2266 285.532H74.4014C74.4014 282.026 73.5709 279.239 71.8245 277.259L70.9435 278.037ZM73.2266 285.532V304H74.4014V285.532H73.2266ZM73.814 303.413H63.068V304.587H73.814V303.413ZM63.6554 304V286.828H62.4806V304H63.6554ZM63.6554 286.828C63.6554 285.507 63.3238 284.386 62.5976 283.532L61.7024 284.292C62.2002 284.878 62.4806 285.701 62.4806 286.828H63.6554ZM62.6173 283.556C61.914 282.633 60.9008 282.191 59.666 282.191V283.365C60.5912 283.365 61.234 283.679 61.6827 284.268L62.6173 283.556ZM59.666 282.191C58.2552 282.191 57.0673 282.682 56.155 283.677L57.021 284.471C57.6927 283.738 58.5568 283.365 59.666 283.365V282.191ZM56.155 283.677C55.2558 284.658 54.8126 285.865 54.8126 287.26H55.9874C55.9874 286.135 56.3362 285.218 57.021 284.471L56.155 283.677ZM54.8126 287.26V304H55.9874V287.26H54.8126ZM55.4 303.413H44.654V304.587H55.4V303.413ZM45.2414 304V286.828H44.0666V304H45.2414ZM45.2414 286.828C45.2414 285.507 44.9098 284.386 44.1836 283.532L43.2884 284.292C43.7862 284.878 44.0666 285.701 44.0666 286.828H45.2414ZM44.2033 283.556C43.5 282.633 42.4868 282.191 41.252 282.191V283.365C42.1772 283.365 42.82 283.679 43.2687 284.268L44.2033 283.556ZM41.252 282.191C39.8412 282.191 38.6533 282.682 37.741 283.677L38.607 284.471C39.2787 283.738 40.1428 283.365 41.252 283.365V282.191ZM37.741 283.677C36.8418 284.658 36.3986 285.865 36.3986 287.26H37.5734C37.5734 286.135 37.9222 285.218 38.607 284.471L37.741 283.677ZM36.3986 287.26V304H37.5734V287.26H36.3986ZM36.986 303.413H26.24V304.587H36.986V303.413ZM26.8274 304V275.488H25.6526V304H26.8274ZM26.24 276.075H35.042V274.901H26.24V276.075ZM34.4624 275.583L35.1644 279.849L36.3237 279.659L35.6216 275.393L34.4624 275.583ZM36.222 280.095C37.2421 278.667 38.5867 277.541 40.2684 276.718L39.7516 275.662C37.9053 276.567 36.4059 277.817 35.266 279.413L36.222 280.095ZM40.2727 276.715C41.9925 275.856 43.7927 275.427 45.68 275.427V274.253C43.6073 274.253 41.6275 274.724 39.7473 275.665L40.2727 276.715ZM45.68 275.427C47.7493 275.427 49.4334 275.823 50.7626 276.579C52.0851 277.331 53.093 278.461 53.7844 279.995L54.8556 279.513C54.071 277.771 52.9009 276.444 51.3434 275.558C49.7926 274.676 47.8947 274.253 45.68 274.253V275.427ZM54.7926 280.103C55.852 278.668 57.2012 277.539 58.8487 276.715L58.3233 275.665C56.5148 276.569 55.02 277.816 53.8474 279.405L54.7926 280.103ZM58.853 276.713C60.5375 275.854 62.2824 275.427 64.094 275.427V274.253C62.0896 274.253 60.1625 274.726 58.319 275.667L58.853 276.713ZM104.972 277.054L104.693 277.571L104.698 277.574L104.972 277.054ZM109.508 296.764L109.983 296.418L109.983 296.418L109.508 296.764ZM112.748 297.358H113.335V296.771H112.748V297.358ZM112.748 303.568L113.074 304.057L113.335 303.882V303.568H112.748ZM111.884 303.946L112.07 304.503L112.082 304.499L112.095 304.494L111.884 303.946ZM109.994 304.378L109.893 303.799L109.881 303.801L109.869 303.804L109.994 304.378ZM101.948 303.73L101.691 304.258L101.699 304.262L101.708 304.266L101.948 303.73ZM99.194 301.084L99.7294 300.842L99.42 300.157L98.83 300.623L99.194 301.084ZM94.604 303.676L94.3939 303.127L94.3939 303.127L94.604 303.676ZM80.834 290.338L81.2442 290.758L81.2444 290.758L80.834 290.338ZM87.314 287.314L87.2031 286.737L87.2031 286.737L87.314 287.314ZM98.33 286.504V287.091H98.9174V286.504H98.33ZM97.142 282.562L96.7859 283.029L96.7965 283.037L97.142 282.562ZM91.256 282.292L91.0025 281.762L90.9933 281.767L91.256 282.292ZM90.068 284.398V284.985H90.6554V284.398H90.068ZM79.484 284.398L78.908 284.513L79.0024 284.985H79.484V284.398ZM83.264 277.216L82.9577 276.715L82.9546 276.717L83.264 277.216ZM98.33 291.58H98.9174V290.993H98.33V291.58ZM91.526 292.606L91.7671 293.142L91.773 293.139L91.526 292.606ZM96.71 296.818L96.3731 296.337L96.3655 296.342L96.71 296.818ZM94.334 275.427C98.6295 275.427 102.07 276.156 104.693 277.571L105.251 276.537C102.402 275 98.7505 274.253 94.334 274.253V275.427ZM104.698 277.574C105.982 278.249 106.92 279.126 107.542 280.197C108.164 281.27 108.489 282.573 108.489 284.128H109.663C109.663 282.407 109.304 280.893 108.558 279.608C107.812 278.321 106.698 277.299 105.246 276.534L104.698 277.574ZM108.489 284.128V295.252H109.663V284.128H108.489ZM108.489 295.252C108.489 295.957 108.655 296.59 109.033 297.11L109.983 296.418C109.785 296.146 109.663 295.771 109.663 295.252H108.489ZM109.033 297.11C109.452 297.686 110.078 297.945 110.804 297.945V296.771C110.378 296.771 110.14 296.634 109.983 296.418L109.033 297.11ZM110.804 297.945H112.748V296.771H110.804V297.945ZM112.161 297.358V303.568H113.335V297.358H112.161ZM112.422 303.079C112.425 303.078 112.411 303.086 112.371 303.107C112.333 303.126 112.282 303.149 112.216 303.178C112.083 303.236 111.903 303.309 111.673 303.398L112.095 304.494C112.333 304.403 112.531 304.323 112.686 304.255C112.83 304.192 112.972 304.124 113.074 304.057L112.422 303.079ZM111.698 303.389C111.308 303.519 110.712 303.657 109.893 303.799L110.095 304.957C110.932 304.811 111.596 304.661 112.07 304.503L111.698 303.389ZM109.869 303.804C109.092 303.973 108.181 304.061 107.132 304.061V305.235C108.243 305.235 109.24 305.143 110.119 304.952L109.869 303.804ZM107.132 304.061C105.096 304.061 103.457 303.761 102.188 303.194L101.708 304.266C103.175 304.923 104.992 305.235 107.132 305.235V304.061ZM102.205 303.202C100.97 302.601 100.166 301.808 99.7294 300.842L98.6586 301.326C99.2303 302.592 100.262 303.563 101.691 304.258L102.205 303.202ZM98.83 300.623C97.5104 301.665 96.0327 302.5 94.3939 303.127L94.8141 304.225C96.5593 303.556 98.1416 302.663 99.558 301.545L98.83 300.623ZM94.3939 303.127C92.7835 303.744 90.8776 304.061 88.664 304.061V305.235C90.9864 305.235 93.0405 304.904 94.8141 304.225L94.3939 303.127ZM88.664 304.061C85.3782 304.061 83.0225 303.404 81.4968 302.19C79.9967 300.997 79.2074 299.189 79.2074 296.656H78.0326C78.0326 299.451 78.9173 301.639 80.7652 303.11C82.5875 304.56 85.2538 305.235 88.664 305.235V304.061ZM79.2074 296.656C79.2074 293.986 79.9164 292.054 81.2442 290.758L80.4238 289.918C78.7996 291.502 78.0326 293.782 78.0326 296.656H79.2074ZM81.2444 290.758C82.6497 289.387 84.691 288.417 87.4249 287.891L87.2031 286.737C84.321 287.291 82.0423 288.337 80.4236 289.918L81.2444 290.758ZM87.4249 287.891C90.1816 287.361 93.8123 287.091 98.33 287.091V285.917C93.7757 285.917 90.0624 286.187 87.2031 286.737L87.4249 287.891ZM98.9174 286.504V285.1H97.7426V286.504H98.9174ZM98.9174 285.1C98.9174 283.826 98.4543 282.79 97.4875 282.087L96.7965 283.037C97.4137 283.486 97.7426 284.142 97.7426 285.1H98.9174ZM97.498 282.095C96.6136 281.421 95.4873 281.111 94.172 281.111V282.285C95.3047 282.285 96.1584 282.551 96.786 283.029L97.498 282.095ZM94.172 281.111C92.9869 281.111 91.9249 281.321 91.0025 281.762L91.5095 282.822C92.2431 282.471 93.1251 282.285 94.172 282.285V281.111ZM90.9933 281.767C90.5195 282.003 90.133 282.327 89.8676 282.749C89.6018 283.172 89.4806 283.658 89.4806 284.182H90.6554C90.6554 283.842 90.7322 283.581 90.8624 283.374C90.993 283.166 91.2005 282.977 91.5187 282.817L90.9933 281.767ZM89.4806 284.182V284.398H90.6554V284.182H89.4806ZM90.068 283.811H79.484V284.985H90.068V283.811ZM80.06 284.283C80.0353 284.159 80.0174 283.952 80.0174 283.642H78.8426C78.8426 283.98 78.8607 284.277 78.908 284.513L80.06 284.283ZM80.0174 283.642C80.0174 281.171 81.1669 279.207 83.5734 277.715L82.9546 276.717C80.2491 278.393 78.8426 280.713 78.8426 283.642H80.0174ZM83.5703 277.717C86.0314 276.213 89.5973 275.427 94.334 275.427V274.253C89.4947 274.253 85.6806 275.051 82.9577 276.715L83.5703 277.717ZM98.33 290.993C95.2469 290.993 92.8739 291.334 91.279 292.073L91.773 293.139C93.1301 292.51 95.2931 292.167 98.33 292.167V290.993ZM91.2849 292.07C89.7361 292.767 88.7786 293.811 88.7786 295.252H89.9534C89.9534 294.461 90.4359 293.741 91.7671 293.142L91.2849 292.07ZM88.7786 295.252C88.7786 296.3 89.1445 297.168 89.936 297.75C90.6938 298.307 91.7593 298.539 93.038 298.539V297.365C91.8687 297.365 91.0982 297.147 90.632 296.804C90.1995 296.486 89.9534 296.004 89.9534 295.252H88.7786ZM93.038 298.539C94.5541 298.539 95.9013 298.129 97.0545 297.294L96.3655 296.342C95.4307 297.019 94.3299 297.365 93.038 297.365V298.539ZM97.0469 297.299C98.2513 296.456 98.9174 295.354 98.9174 294.01H97.7426C97.7426 294.898 97.3287 295.668 96.3731 296.337L97.0469 297.299ZM98.9174 294.01V291.58H97.7426V294.01H98.9174ZM136.13 275.488V274.901H135.855L135.679 275.111L136.13 275.488ZM148.658 275.488L149.091 275.885L149.992 274.901H148.658V275.488ZM138.128 286.99L137.694 286.593L137.391 286.925L137.632 287.305L138.128 286.99ZM148.928 304V304.587H149.996L149.424 303.685L148.928 304ZM136.724 304L136.223 304.307L136.395 304.587H136.724V304ZM130.73 294.226L131.23 293.919L130.847 293.293L130.32 293.805L130.73 294.226ZM127.004 297.844L126.594 297.423L126.416 297.596V297.844H127.004ZM127.004 304V304.587H127.591V304H127.004ZM116.258 304H115.67V304.587H116.258V304ZM116.258 264.796V264.209H115.67V264.796H116.258ZM127.004 264.796H127.591V264.209H127.004V264.796ZM127.004 286.396H126.416V288.014L127.454 286.773L127.004 286.396ZM136.13 276.075H148.658V274.901H136.13V276.075ZM148.224 275.091L137.694 286.593L138.561 287.387L149.091 275.885L148.224 275.091ZM137.632 287.305L148.432 304.315L149.424 303.685L138.624 286.675L137.632 287.305ZM148.928 303.413H136.724V304.587H148.928V303.413ZM137.224 303.693L131.23 293.919L130.229 294.533L136.223 304.307L137.224 303.693ZM130.32 293.805L126.594 297.423L127.413 298.265L131.139 294.647L130.32 293.805ZM126.416 297.844V304H127.591V297.844H126.416ZM127.004 303.413H116.258V304.587H127.004V303.413ZM116.845 304V264.796H115.67V304H116.845ZM116.258 265.383H127.004V264.209H116.258V265.383ZM126.416 264.796V286.396H127.591V264.796H126.416ZM127.454 286.773L136.58 275.865L135.679 275.111L126.553 286.019L127.454 286.773ZM178.357 277.864L178.02 278.345L178.027 278.35L178.357 277.864ZM182.731 286.99V287.577H183.319V286.99H182.731ZM172.309 286.99H171.722V287.577H172.309V286.99ZM172.741 292.39V291.803H172.154V292.39H172.741ZM182.731 292.39H183.319V291.803H182.731V292.39ZM178.357 301.624L178.023 301.141L178.02 301.143L178.357 301.624ZM155.245 300.868L154.856 301.308L154.856 301.308L155.245 300.868ZM155.245 278.62L154.856 278.18L154.856 278.18L155.245 278.62ZM167.017 275.427C171.616 275.427 175.267 276.418 178.02 278.345L178.694 277.383C175.687 275.278 171.778 274.253 167.017 274.253V275.427ZM178.027 278.35C180.754 280.201 182.144 283.044 182.144 286.99H183.319C183.319 282.728 181.793 279.487 178.687 277.378L178.027 278.35ZM182.731 286.403H172.309V287.577H182.731V286.403ZM172.897 286.99C172.897 285.266 172.425 283.869 171.384 282.912C170.352 281.965 168.86 281.543 167.017 281.543V282.717C168.702 282.717 169.857 283.105 170.589 283.778C171.311 284.441 171.722 285.474 171.722 286.99H172.897ZM167.017 281.543C165.139 281.543 163.63 282.088 162.604 283.271C161.592 284.437 161.138 286.126 161.138 288.232H162.313C162.313 286.27 162.74 284.908 163.492 284.04C164.23 283.189 165.367 282.717 167.017 282.717V281.543ZM161.138 288.232V291.31H162.313V288.232H161.138ZM161.138 291.31C161.138 293.404 161.613 295.084 162.668 296.242C163.732 297.41 165.292 297.945 167.233 297.945V296.771C165.503 296.771 164.308 296.298 163.536 295.45C162.755 294.592 162.313 293.248 162.313 291.31H161.138ZM167.233 297.945C169.146 297.945 170.69 297.516 171.758 296.552C172.837 295.579 173.329 294.153 173.329 292.39H172.154C172.154 293.939 171.727 294.997 170.971 295.68C170.203 296.372 168.993 296.771 167.233 296.771V297.945ZM172.741 292.977H182.731V291.803H172.741V292.977ZM182.144 292.39C182.144 296.374 180.752 299.254 178.023 301.141L178.691 302.107C181.794 299.962 183.319 296.686 183.319 292.39H182.144ZM178.02 301.143C175.267 303.07 171.616 304.061 167.017 304.061V305.235C171.778 305.235 175.687 304.21 178.694 302.105L178.02 301.143ZM167.017 304.061C162.11 304.061 158.341 302.826 155.635 300.428L154.856 301.308C157.837 303.95 161.916 305.235 167.017 305.235V304.061ZM155.635 300.428C152.951 298.05 151.567 294.524 151.567 289.744H150.392C150.392 294.756 151.852 298.646 154.856 301.308L155.635 300.428ZM151.567 289.744C151.567 284.964 152.951 281.438 155.635 279.06L154.856 278.18C151.852 280.842 150.392 284.732 150.392 289.744H151.567ZM155.635 279.06C158.341 276.662 162.11 275.427 167.017 275.427V274.253C161.916 274.253 157.837 275.538 154.856 278.18L155.635 279.06ZM198.142 278.458H197.555V279.876L198.558 278.873L198.142 278.458ZM202.192 275.812L202.408 276.358L202.419 276.354L202.192 275.812ZM216.988 304V304.587H217.576V304H216.988ZM206.242 304H205.655V304.587H206.242V304ZM205.27 283.912L204.814 284.282L204.823 284.294L204.834 284.305L205.27 283.912ZM199.384 284.074L199.808 284.48L199.384 284.074ZM198.142 304V304.587H198.73V304H198.142ZM187.396 304H186.809V304.587H187.396V304ZM187.396 264.85V264.263H186.809V264.85H187.396ZM198.142 264.85H198.73V264.263H198.142V264.85ZM198.558 278.873C199.652 277.779 200.933 276.941 202.408 276.358L201.976 275.266C200.355 275.907 198.937 276.833 197.727 278.043L198.558 278.873ZM202.419 276.354C203.895 275.736 205.437 275.427 207.052 275.427V274.253C205.283 274.253 203.586 274.592 201.965 275.27L202.419 276.354ZM207.052 275.427C210.257 275.427 212.558 276.313 214.068 277.987L214.94 277.201C213.139 275.203 210.471 274.253 207.052 274.253V275.427ZM214.068 277.987C215.594 279.679 216.401 282.164 216.401 285.532H217.576C217.576 281.988 216.727 279.181 214.94 277.201L214.068 277.987ZM216.401 285.532V304H217.576V285.532H216.401ZM216.988 303.413H206.242V304.587H216.988V303.413ZM206.83 304V286.828H205.655V304H206.83ZM206.83 286.828C206.83 285.499 206.476 284.373 205.707 283.519L204.834 284.305C205.361 284.891 205.655 285.709 205.655 286.828H206.83ZM205.727 283.542C204.982 282.623 203.917 282.191 202.624 282.191V283.365C203.635 283.365 204.334 283.689 204.814 284.282L205.727 283.542ZM202.624 282.191C201.152 282.191 199.912 282.674 198.96 283.668L199.808 284.48C200.512 283.746 201.432 283.365 202.624 283.365V282.191ZM198.96 283.668C198.021 284.647 197.555 285.857 197.555 287.26H198.73C198.73 286.143 199.091 285.229 199.808 284.48L198.96 283.668ZM197.555 287.26V304H198.73V287.26H197.555ZM198.142 303.413H187.396V304.587H198.142V303.413ZM187.984 304V264.85H186.809V304H187.984ZM187.396 265.437H198.142V264.263H187.396V265.437ZM197.555 264.85V278.458H198.73V264.85H197.555ZM248.146 277.054L247.867 277.571L247.872 277.574L248.146 277.054ZM252.682 296.764L253.157 296.418L253.157 296.418L252.682 296.764ZM255.922 297.358H256.509V296.771H255.922V297.358ZM255.922 303.568L256.248 304.057L256.509 303.882V303.568H255.922ZM255.058 303.946L255.244 304.503L255.256 304.499L255.269 304.494L255.058 303.946ZM253.168 304.378L253.067 303.799L253.055 303.801L253.043 303.804L253.168 304.378ZM245.122 303.73L244.865 304.258L244.873 304.262L244.882 304.266L245.122 303.73ZM242.368 301.084L242.903 300.842L242.594 300.157L242.004 300.623L242.368 301.084ZM237.778 303.676L237.568 303.127L237.568 303.127L237.778 303.676ZM224.008 290.338L224.418 290.758L224.418 290.758L224.008 290.338ZM230.488 287.314L230.377 286.737L230.377 286.737L230.488 287.314ZM241.504 286.504V287.091H242.091V286.504H241.504ZM240.316 282.562L239.96 283.029L239.97 283.037L240.316 282.562ZM234.43 282.292L234.176 281.762L234.167 281.767L234.43 282.292ZM233.242 284.398V284.985H233.829V284.398H233.242ZM222.658 284.398L222.082 284.513L222.176 284.985H222.658V284.398ZM226.438 277.216L226.131 276.715L226.128 276.717L226.438 277.216ZM241.504 291.58H242.091V290.993H241.504V291.58ZM234.7 292.606L234.941 293.142L234.947 293.139L234.7 292.606ZM239.884 296.818L239.547 296.337L239.539 296.342L239.884 296.818ZM237.508 275.427C241.803 275.427 245.244 276.156 247.867 277.571L248.425 276.537C245.576 275 241.924 274.253 237.508 274.253V275.427ZM247.872 277.574C249.156 278.249 250.094 279.126 250.716 280.197C251.338 281.27 251.662 282.573 251.662 284.128H252.837C252.837 282.407 252.477 280.893 251.732 279.608C250.985 278.321 249.872 277.299 248.419 276.534L247.872 277.574ZM251.662 284.128V295.252H252.837V284.128H251.662ZM251.662 295.252C251.662 295.957 251.829 296.59 252.207 297.11L253.157 296.418C252.958 296.146 252.837 295.771 252.837 295.252H251.662ZM252.207 297.11C252.626 297.686 253.252 297.945 253.978 297.945V296.771C253.552 296.771 253.314 296.634 253.157 296.418L252.207 297.11ZM253.978 297.945H255.922V296.771H253.978V297.945ZM255.334 297.358V303.568H256.509V297.358H255.334ZM255.596 303.079C255.598 303.078 255.585 303.086 255.544 303.107C255.507 303.126 255.456 303.149 255.389 303.178C255.257 303.236 255.077 303.309 254.847 303.398L255.269 304.494C255.507 304.403 255.705 304.323 255.86 304.255C256.004 304.192 256.146 304.124 256.248 304.057L255.596 303.079ZM254.872 303.389C254.482 303.519 253.886 303.657 253.067 303.799L253.268 304.957C254.106 304.811 254.77 304.661 255.244 304.503L254.872 303.389ZM253.043 303.804C252.265 303.973 251.355 304.061 250.306 304.061V305.235C251.417 305.235 252.414 305.143 253.293 304.952L253.043 303.804ZM250.306 304.061C248.27 304.061 246.631 303.761 245.362 303.194L244.882 304.266C246.349 304.923 248.166 305.235 250.306 305.235V304.061ZM245.379 303.202C244.143 302.601 243.34 301.808 242.903 300.842L241.832 301.326C242.404 302.592 243.436 303.563 244.865 304.258L245.379 303.202ZM242.004 300.623C240.684 301.665 239.207 302.5 237.568 303.127L237.988 304.225C239.733 303.556 241.315 302.663 242.732 301.545L242.004 300.623ZM237.568 303.127C235.957 303.744 234.051 304.061 231.838 304.061V305.235C234.16 305.235 236.214 304.904 237.988 304.225L237.568 303.127ZM231.838 304.061C228.552 304.061 226.196 303.404 224.671 302.19C223.171 300.997 222.381 299.189 222.381 296.656H221.206C221.206 299.451 222.091 301.639 223.939 303.11C225.761 304.56 228.428 305.235 231.838 305.235V304.061ZM222.381 296.656C222.381 293.986 223.09 292.054 224.418 290.758L223.598 289.918C221.973 291.502 221.206 293.782 221.206 296.656H222.381ZM224.418 290.758C225.823 289.387 227.865 288.417 230.599 287.891L230.377 286.737C227.495 287.291 225.216 288.337 223.597 289.918L224.418 290.758ZM230.599 287.891C233.355 287.361 236.986 287.091 241.504 287.091V285.917C236.95 285.917 233.236 286.187 230.377 286.737L230.599 287.891ZM242.091 286.504V285.1H240.916V286.504H242.091ZM242.091 285.1C242.091 283.826 241.628 282.79 240.661 282.087L239.97 283.037C240.587 283.486 240.916 284.142 240.916 285.1H242.091ZM240.672 282.095C239.787 281.421 238.661 281.111 237.346 281.111V282.285C238.478 282.285 239.332 282.551 239.96 283.029L240.672 282.095ZM237.346 281.111C236.161 281.111 235.099 281.321 234.176 281.762L234.683 282.822C235.417 282.471 236.299 282.285 237.346 282.285V281.111ZM234.167 281.767C233.693 282.003 233.307 282.327 233.041 282.749C232.776 283.172 232.654 283.658 232.654 284.182H233.829C233.829 283.842 233.906 283.581 234.036 283.374C234.167 283.166 234.374 282.977 234.693 282.817L234.167 281.767ZM232.654 284.182V284.398H233.829V284.182H232.654ZM233.242 283.811H222.658V284.985H233.242V283.811ZM223.234 284.283C223.209 284.159 223.191 283.952 223.191 283.642H222.016C222.016 283.98 222.035 284.277 222.082 284.513L223.234 284.283ZM223.191 283.642C223.191 281.171 224.341 279.207 226.747 277.715L226.128 276.717C223.423 278.393 222.016 280.713 222.016 283.642H223.191ZM226.744 277.717C229.205 276.213 232.771 275.427 237.508 275.427V274.253C232.669 274.253 228.854 275.051 226.132 276.715L226.744 277.717ZM241.504 290.993C238.421 290.993 236.048 291.334 234.453 292.073L234.947 293.139C236.304 292.51 238.467 292.167 241.504 292.167V290.993ZM234.459 292.07C232.91 292.767 231.952 293.811 231.952 295.252H233.127C233.127 294.461 233.61 293.741 234.941 293.142L234.459 292.07ZM231.952 295.252C231.952 296.3 232.318 297.168 233.11 297.75C233.868 298.307 234.933 298.539 236.212 298.539V297.365C235.043 297.365 234.272 297.147 233.806 296.804C233.373 296.486 233.127 296.004 233.127 295.252H231.952ZM236.212 298.539C237.728 298.539 239.075 298.129 240.228 297.294L239.539 296.342C238.605 297.019 237.504 297.365 236.212 297.365V298.539ZM240.221 297.299C241.425 296.456 242.091 295.354 242.091 294.01H240.916C240.916 294.898 240.502 295.668 239.547 296.337L240.221 297.299ZM242.091 294.01V291.58H240.916V294.01H242.091ZM279.033 303.136L279.584 303.34L279.585 303.338L279.033 303.136ZM273.579 312.208L273.175 311.782L273.168 311.789L273.579 312.208ZM258.405 314.368H257.818V314.781L258.206 314.921L258.405 314.368ZM258.405 307.942V307.355H257.818V307.942H258.405ZM267.531 304L268.108 304.111L268.141 303.942L268.077 303.783L267.531 304ZM256.191 275.488V274.901H255.326L255.646 275.705L256.191 275.488ZM267.747 275.488L268.312 275.326L268.19 274.901H267.747V275.488ZM273.201 294.442L272.637 294.604L272.759 295.029H273.201V294.442ZM273.579 294.442V295.029H274.031L274.147 294.592L273.579 294.442ZM278.601 275.488V274.901H278.149L278.034 275.338L278.601 275.488ZM289.185 275.488L289.737 275.69L290.027 274.901H289.185V275.488ZM278.482 302.932C277.025 306.878 275.248 309.813 273.175 311.782L273.984 312.634C276.231 310.499 278.09 307.386 279.584 303.34L278.482 302.932ZM273.168 311.789C271.183 313.74 268.36 314.753 264.615 314.753V315.927C268.574 315.927 271.728 314.852 273.991 312.627L273.168 311.789ZM264.615 314.753C262.329 314.753 260.328 314.436 258.604 313.815L258.206 314.921C260.083 315.596 262.222 315.927 264.615 315.927V314.753ZM258.993 314.368V307.942H257.818V314.368H258.993ZM258.405 308.529H262.725V307.355H258.405V308.529ZM262.725 308.529C264.17 308.529 265.39 308.177 266.324 307.411C267.259 306.644 267.838 305.52 268.108 304.111L266.954 303.889C266.721 305.108 266.246 305.955 265.579 306.502C264.912 307.05 263.981 307.355 262.725 307.355V308.529ZM268.077 303.783L256.737 275.271L255.646 275.705L266.986 304.217L268.077 303.783ZM256.191 276.075H267.747V274.901H256.191V276.075ZM267.183 275.65L272.637 294.604L273.766 294.28L268.312 275.326L267.183 275.65ZM273.201 295.029H273.579V293.855H273.201V295.029ZM274.147 294.592L279.169 275.638L278.034 275.338L273.012 294.292L274.147 294.592ZM278.601 276.075H289.185V274.901H278.601V276.075ZM288.634 275.286L278.482 302.934L279.585 303.338L289.737 275.69L288.634 275.286ZM318.061 278.674L317.668 279.111L317.674 279.116L318.061 278.674ZM318.061 300.868L318.45 301.308L318.451 301.307L318.061 300.868ZM294.517 300.868L294.127 301.308L294.127 301.308L294.517 300.868ZM294.517 278.62L294.127 278.18L294.127 278.18L294.517 278.62ZM306.289 275.427C311.193 275.427 314.962 276.679 317.668 279.111L318.453 278.237C315.472 275.557 311.392 274.253 306.289 274.253V275.427ZM317.674 279.116C320.394 281.496 321.793 285.004 321.793 289.744H322.968C322.968 284.764 321.488 280.892 318.447 278.232L317.674 279.116ZM321.793 289.744C321.793 294.483 320.394 298.012 317.671 300.429L318.451 301.307C321.488 298.612 322.968 294.725 322.968 289.744H321.793ZM317.671 300.428C314.965 302.826 311.195 304.061 306.289 304.061V305.235C311.39 305.235 315.469 303.95 318.45 301.308L317.671 300.428ZM306.289 304.061C301.382 304.061 297.613 302.826 294.906 300.428L294.127 301.308C297.109 303.95 301.187 305.235 306.289 305.235V304.061ZM294.906 300.428C292.222 298.05 290.838 294.524 290.838 289.744H289.663C289.663 294.756 291.123 298.646 294.127 301.308L294.906 300.428ZM290.838 289.744C290.838 284.964 292.222 281.438 294.906 279.06L294.127 278.18C291.123 280.842 289.663 284.732 289.663 289.744H290.838ZM294.906 279.06C297.613 276.662 301.382 275.427 306.289 275.427V274.253C301.187 274.253 297.109 275.538 294.127 278.18L294.906 279.06ZM306.289 281.543C304.411 281.543 302.902 282.088 301.876 283.271C300.864 284.437 300.409 286.126 300.409 288.232H301.584C301.584 286.27 302.011 284.908 302.763 284.04C303.502 283.189 304.639 282.717 306.289 282.717V281.543ZM300.409 288.232V291.31H301.584V288.232H300.409ZM300.409 291.31C300.409 293.399 300.864 295.075 301.878 296.233C302.904 297.406 304.412 297.945 306.289 297.945V296.771C304.637 296.771 303.499 296.302 302.762 295.459C302.011 294.601 301.584 293.253 301.584 291.31H300.409ZM306.289 297.945C308.181 297.945 309.703 297.407 310.738 296.235C311.762 295.077 312.222 293.4 312.222 291.31H311.047C311.047 293.252 310.616 294.599 309.858 295.457C309.112 296.301 307.96 296.771 306.289 296.771V297.945ZM312.222 291.31V288.232H311.047V291.31H312.222ZM312.222 288.232C312.222 286.125 311.762 284.435 310.74 283.268C309.705 282.087 308.183 281.543 306.289 281.543V282.717C307.958 282.717 309.11 283.19 309.856 284.043C310.616 284.91 311.047 286.271 311.047 288.232H312.222ZM357.156 304V304.587H357.744V304H357.156ZM346.41 304H345.823V304.587H346.41V304ZM345.438 283.912L344.982 284.282L344.991 284.294L345.002 284.305L345.438 283.912ZM339.552 284.074L339.976 284.48L339.552 284.074ZM338.31 304V304.587H338.898V304H338.31ZM327.564 304H326.977V304.587H327.564V304ZM327.564 275.488V274.901H326.977V275.488H327.564ZM336.366 275.488L336.946 275.394L336.866 274.901H336.366V275.488ZM337.068 279.808L336.488 279.902L336.712 281.28L337.541 280.157L337.068 279.808ZM341.442 276.19L341.184 275.663L341.18 275.665L341.442 276.19ZM347.22 275.427C350.425 275.427 352.726 276.313 354.236 277.987L355.108 277.201C353.307 275.203 350.639 274.253 347.22 274.253V275.427ZM354.236 277.987C355.762 279.679 356.569 282.164 356.569 285.532H357.744C357.744 281.988 356.895 279.181 355.108 277.201L354.236 277.987ZM356.569 285.532V304H357.744V285.532H356.569ZM357.156 303.413H346.41V304.587H357.156V303.413ZM346.998 304V286.828H345.823V304H346.998ZM346.998 286.828C346.998 285.499 346.644 284.373 345.875 283.519L345.002 284.305C345.529 284.891 345.823 285.709 345.823 286.828H346.998ZM345.895 283.542C345.15 282.623 344.085 282.191 342.792 282.191V283.365C343.803 283.365 344.502 283.689 344.982 284.282L345.895 283.542ZM342.792 282.191C341.32 282.191 340.08 282.674 339.128 283.668L339.976 284.48C340.68 283.746 341.6 283.365 342.792 283.365V282.191ZM339.128 283.668C338.189 284.647 337.723 285.857 337.723 287.26H338.898C338.898 286.143 339.259 285.229 339.976 284.48L339.128 283.668ZM337.723 287.26V304H338.898V287.26H337.723ZM338.31 303.413H327.564V304.587H338.31V303.413ZM328.152 304V275.488H326.977V304H328.152ZM327.564 276.075H336.366V274.901H327.564V276.075ZM335.786 275.582L336.488 279.902L337.648 279.714L336.946 275.394L335.786 275.582ZM337.541 280.157C338.598 278.725 339.982 277.577 341.705 276.715L341.18 275.665C339.303 276.603 337.771 277.867 336.596 279.459L337.541 280.157ZM341.701 276.717C343.457 275.856 345.295 275.427 347.22 275.427V274.253C345.113 274.253 343.099 274.724 341.184 275.663L341.701 276.717Z" fill="white"/>
</svg>
